<svg width="401" height="174" viewBox="0 0 401 174" fill="none" xmlns="http://www.w3.org/2000/svg">
<path d="M1.03906 148C1.03906 148 1.03906 140.344 1.03906 125.031C1.03906 125.031 18.2337 108.762 52.623 76.2227C58.5566 70.6719 62.7995 65.6315 65.3516 61.1016C67.9674 56.5716 69.2754 51.946 69.2754 47.2246C69.2754 40.7806 67.2656 35.3893 63.2461 31.0508C59.2904 26.7122 54.3138 24.543 48.3164 24.543C41.5534 24.543 36.0983 27.1589 31.9512 32.3906C27.804 37.6224 25.7305 44.5449 25.7305 53.1582H0.0820312C0.0820312 45.9486 0.720052 39.8874 1.99609 34.9746C3.27214 29.998 5.3776 25.2767 8.3125 20.8105C12.5234 14.4941 18.138 9.54948 25.1562 5.97656C32.1745 2.40365 39.7988 0.617188 48.0293 0.617188C61.5553 0.617188 72.8164 5.08333 81.8125 14.0156C90.8086 22.9479 95.3066 34.1452 95.3066 47.6074C95.3066 56.4759 93.265 64.4512 89.1816 71.5332C85.1621 78.6152 77.8568 86.9733 67.2656 96.6074L37.6934 123.5H94.7324V148H1.03906ZM104.59 105.029C104.59 105.029 126.825 71.0866 171.295 3.20117C171.295 3.20117 178.6 3.20117 193.211 3.20117C193.211 3.20117 193.211 36.4421 193.211 102.924C193.211 102.924 198.315 102.924 208.523 102.924C208.523 102.924 208.523 110.708 208.523 126.275C208.523 126.275 203.419 126.275 193.211 126.275C193.211 126.275 193.211 133.517 193.211 148C193.211 148 184.534 148 167.18 148C167.18 148 167.18 140.758 167.18 126.275C167.18 126.275 146.316 126.275 104.59 126.275C104.59 126.275 104.59 119.193 104.59 105.029ZM167.18 102.924C167.18 102.924 167.18 84.2936 167.18 47.0332C167.18 47.0332 155.153 65.6634 131.1 102.924C131.1 102.924 143.126 102.924 167.18 102.924ZM214.744 173.074C214.744 173.074 235.831 116.45 278.004 3.20117C278.004 3.20117 284.161 3.20117 296.475 3.20117C296.475 3.20117 275.356 59.8255 233.119 173.074C233.119 173.074 226.994 173.074 214.744 173.074ZM318.199 148C318.199 148 336.479 107.9 373.037 27.7012C373.037 27.7012 353.769 27.7012 315.232 27.7012C315.232 27.7012 315.232 19.5345 315.232 3.20117C315.232 3.20117 343.656 3.20117 400.504 3.20117C400.504 3.20117 400.504 11.3678 400.504 27.7012C400.504 27.7012 382.863 67.8008 347.58 148C347.58 148 337.786 148 318.199 148Z" fill="#FECA57"/>
</svg>
