<svg width="72" height="72" viewBox="0 0 72 72" fill="none" xmlns="http://www.w3.org/2000/svg">
<rect width="72" height="72" rx="36" fill="#FECA57"/>
<path d="M28.4543 23.3666C28.2588 23.562 28.1912 23.6897 28.1912 23.8852C28.1912 24.043 28.8451 25.8919 29.7921 28.4248L31.4005 32.7014L27.9808 32.724C24.824 32.739 24.5459 32.7315 24.328 32.6037C24.08 32.4684 24.0349 32.3482 22.7045 28.1768C22.4565 27.4102 22.2385 26.8765 22.0281 26.5458C21.4569 25.6439 20.5625 25.0276 19.4726 24.8021C18.443 24.5841 17.7064 24.7946 17.2554 25.4335L17.0299 25.7642L17.0074 30.845C16.9848 36.6097 16.9773 36.5346 17.5561 37.6845C18.1198 38.8044 18.9089 39.6086 19.9988 40.1723C21.1487 40.7661 20.803 40.736 26.4024 40.7811L31.4081 40.8187L29.7996 45.1028C28.9203 47.4553 28.1912 49.4847 28.1912 49.5974C28.1912 49.8605 28.3716 50.2212 28.5595 50.3265C28.6497 50.3715 29.4915 50.4016 30.7316 50.4016C32.5355 50.4016 32.8135 50.3866 33.2344 50.2513C33.9034 50.0484 34.5497 49.65 34.9932 49.169C35.2111 48.9285 36.3987 47.0946 37.8493 44.7721L40.3295 40.7886L47.0564 40.7661L53.7832 40.7435L54.1364 40.5707C54.5874 40.3452 55.0384 39.8942 55.2638 39.4433C55.4893 38.9698 55.5419 38.0904 55.3615 37.5568C55.0985 36.7526 53.7757 35.2193 52.6708 34.4376C51.9643 33.9416 50.9872 33.453 50.1454 33.1825C48.8752 32.7766 48.3867 32.739 44.1627 32.739H40.3295L37.8117 28.7104C36.4287 26.4932 35.151 24.5391 34.9782 24.3587C34.5723 23.9303 33.971 23.5319 33.4148 23.329C32.9939 23.1711 32.8211 23.1561 30.8368 23.1336L28.7098 23.111L28.4543 23.3666ZM32.9714 24.9825C33.1818 25.0802 33.49 25.2982 33.6629 25.471C33.8357 25.6439 34.9481 27.35 36.1506 29.2666L38.3228 32.739L35.7673 32.724L33.2119 32.7014L31.8289 29.0186C31.0698 26.9893 30.3934 25.208 30.3333 25.0501L30.213 24.757L31.4005 24.7871C32.4377 24.8096 32.6332 24.8322 32.9714 24.9825ZM19.5854 26.606C20.0814 26.8314 20.4121 27.117 20.6376 27.5154C20.7428 27.6883 21.1938 29.0036 21.6448 30.4316C22.4941 33.1449 22.6519 33.4981 23.178 33.8965C23.3133 34.0017 23.5613 34.1445 23.7267 34.2197C24.0048 34.3474 24.7338 34.3549 36.1957 34.4C47.1466 34.4376 48.4243 34.4527 48.8602 34.5654C49.9124 34.8285 50.7617 35.2043 51.6035 35.768C52.5881 36.4294 53.8208 37.895 53.8208 38.3986C53.8208 38.5489 53.7381 38.6992 53.5652 38.8721L53.3097 39.1276H47.3645C44.0951 39.1276 41.4194 39.1126 41.4194 39.09C41.4194 39.075 41.6524 38.6842 41.9455 38.2257C42.5843 37.211 42.6971 37.0006 42.6971 36.7976C42.6971 36.5346 42.4791 36.1513 42.2762 36.0536C42.0131 35.9333 41.5547 35.9483 41.3668 36.0836C41.2766 36.1438 39.5554 38.842 37.5336 42.0739C33.5426 48.4625 33.5952 48.3873 32.7609 48.6354C32.4904 48.7105 32.0394 48.7481 31.3028 48.7481H30.2356L32.4453 42.8631C33.6629 39.6312 34.655 36.8878 34.655 36.7751C34.655 36.512 34.4746 36.1513 34.2867 36.046C34.204 36.0085 33.986 35.9709 33.7906 35.9709C33.3472 35.9709 33.1668 36.1438 32.9037 36.8352C32.791 37.1284 32.558 37.7522 32.3776 38.2257L32.0544 39.09H26.9511C21.8402 39.09 21.8402 39.09 21.3516 38.9172C20.2092 38.5263 19.2923 37.6169 18.8488 36.4444C18.6835 36.016 18.6835 35.9483 18.6609 31.2133L18.6384 26.4256H18.924C19.0818 26.4256 19.3825 26.5082 19.5854 26.606Z" fill="black" stroke="black" stroke-width="0.6"/>
</svg>
