<svg width="80" height="80" viewBox="0 0 80 80" fill="none" xmlns="http://www.w3.org/2000/svg">
<path d="M51.7311 34.1085L22.6459 19.783L30.4598 15.876L59.111 30.2016V42.3566L51.7311 45.8295V34.1085Z" fill="#FECA57"/>
<path d="M24.8999 17.4703C16.6824 21.4391 9.88969 24.7973 9.78793 24.9245C9.648 25.1154 9.62256 28.3082 9.62256 42.7969C9.62256 59.4098 9.63528 60.4529 9.85153 60.6946C10.0932 60.9872 39.8083 75.3486 40.1645 75.3486C40.5079 75.3486 70.2103 60.9872 70.452 60.6946C70.6683 60.4529 70.681 59.4098 70.681 42.7841C70.681 26.1584 70.6683 25.1154 70.4647 24.8737C70.1722 24.5429 40.4825 10.2196 40.1136 10.2324C39.961 10.2324 33.1173 13.4888 24.8999 17.4703ZM53.979 18.9077C61.395 22.4949 67.4627 25.4461 67.4373 25.4588C67.4118 25.4842 65.6437 26.362 63.4939 27.3923L59.6014 29.2877L57.6043 28.2955C56.5103 27.7612 50.3791 24.7973 44.0061 21.719C37.6204 18.6533 32.3923 16.0965 32.3923 16.0583C32.3923 15.9057 40.0882 12.2676 40.279 12.3312C40.3807 12.3694 46.5502 15.3206 53.979 18.9077ZM43.7898 23.7288C51.2313 27.316 57.3245 30.2799 57.3245 30.318C57.3245 30.3816 51.9691 32.9893 51.8292 32.9893C51.7656 32.9893 45.4053 29.9364 29.9372 22.4568L24.4928 19.8236L24.9126 19.6328C25.1416 19.531 26.3627 18.9459 27.6094 18.3353C28.8687 17.712 29.9754 17.2159 30.0771 17.2159C30.1789 17.2159 36.3483 20.1544 43.7898 23.7288ZM36.6536 27.8121L50.9006 34.7066L50.9388 40.6217C50.9642 46.4731 50.9642 46.524 51.2441 46.8165C51.3967 46.9819 51.6511 47.1091 51.8292 47.1091C52.1854 47.1091 59.5378 43.5982 59.7668 43.3184C59.894 43.1785 59.9449 41.6775 59.9958 37.149L60.0594 31.1703L64.3716 29.0969C66.7504 27.952 68.7093 27.0107 68.7348 27.0107C68.7602 27.0107 68.7729 34.325 68.7729 43.2675V59.5243L55.0856 66.1263C47.5551 69.7643 41.3475 72.7536 41.2839 72.7791C41.2203 72.8045 41.1694 65.9863 41.1694 56.5604V40.2909L44.1842 38.8408C45.8506 38.0394 47.377 37.2889 47.5933 37.1871C48.1275 36.92 48.3565 36.3984 48.1403 35.9532C48.0512 35.7624 47.8095 35.5207 47.6187 35.4317C47.2753 35.2663 47.1353 35.3172 44.693 36.4875C43.281 37.1744 41.6782 37.9249 41.1313 38.1793L40.1518 38.6372L38.9688 38.0903C38.3327 37.785 37.6458 37.4797 37.455 37.4034C36.9589 37.1998 36.4501 37.4161 36.2593 37.8995C35.9922 38.5482 36.2339 38.8153 37.7603 39.604L39.1341 40.3036V56.5604C39.1341 65.503 39.0833 72.8045 39.0324 72.7791C38.9688 72.7664 32.7612 69.7643 25.2306 66.1263L11.5306 59.5116V43.2675C11.5306 34.325 11.5561 27.0107 11.5815 27.0107C11.607 27.0107 16.3644 29.3004 22.165 32.0989C28.3471 35.0882 32.8375 37.1871 33.0537 37.1871C33.2445 37.1871 33.5244 37.0726 33.6643 36.9327C33.9823 36.6147 33.995 35.9023 33.7025 35.6225C33.5753 35.5207 30.8404 34.1596 27.6221 32.6077C17.3566 27.6595 16.7206 27.3542 14.7489 26.3747L12.8154 25.4206L17.4838 23.1691C20.0534 21.9352 22.2159 20.9176 22.2795 20.9176C22.3558 20.9176 28.8178 24.0214 36.6536 27.8121ZM58.0877 37.1617V42.1099L55.5563 43.3311C54.1571 44.018 52.9868 44.565 52.9486 44.565C52.9104 44.565 52.8723 42.3389 52.8723 39.604V34.6557L55.3273 33.4473C56.663 32.7858 57.846 32.2388 57.935 32.2388C58.0495 32.2261 58.0877 33.2946 58.0877 37.1617Z" fill="black"/>
<path d="M13.9602 49.4754C13.6549 49.857 13.6167 50.2641 13.8584 50.5821C14.0746 50.8874 22.5974 54.9961 22.9917 54.9961C23.7804 54.9961 24.2129 54.0039 23.6659 53.4696C23.2843 53.088 15.0032 49.1447 14.5835 49.1447C14.3418 49.1447 14.1382 49.2591 13.9602 49.4754Z" fill="black"/>
<path d="M14.202 53.762C13.7568 53.991 13.5914 54.5379 13.8204 54.9704C14.0748 55.4157 18.3616 57.5781 19.023 57.5781C19.8244 57.6036 20.2315 56.5987 19.6464 56.0517C19.3538 55.7718 15.2705 53.7747 14.7871 53.6602C14.6345 53.6221 14.3801 53.6729 14.202 53.762Z" fill="black"/>
</svg>
