<svg width="72" height="72" viewBox="0 0 72 72" fill="none" xmlns="http://www.w3.org/2000/svg">
<rect width="72" height="72" rx="36" fill="#FECA57"/>
<path d="M26.5504 16.1C26.0815 16.3345 25.8704 17.0692 26.1596 17.5069C26.4801 17.9914 26.3081 17.9758 30.8725 17.9992L35.0383 18.0227V19.7031V21.3913L35.2962 21.6492C35.4682 21.8211 35.6636 21.9227 35.8668 21.954C36.8359 22.1025 37.3049 22.337 37.6409 22.845C38.2037 23.7047 38.1099 24.6348 37.3908 25.3539L37.0313 25.7134L36.9922 25.1663C36.9453 24.5566 36.8594 24.3534 36.5546 24.1502C36.3123 23.9939 35.773 23.9705 35.5229 24.1033C35.2181 24.2675 35.0383 24.6504 35.0383 25.1428C35.0383 25.6743 34.9523 25.7134 34.5928 25.3382C34.288 25.0256 34.0301 24.4707 34.0223 24.1268C34.0223 23.4703 33.6002 23.0169 32.9984 23.0169C32.0292 23.0169 31.7479 23.9939 32.3028 25.4555C32.6936 26.5106 33.7487 27.4641 34.9054 27.8158C35.0227 27.8549 35.0383 27.9799 35.0383 29.0663V30.2699L34.71 30.3872C31.6697 31.4423 18.5784 36.0849 18.4611 36.1474C18.3752 36.1943 18.2345 36.3506 18.1563 36.4835C18.0078 36.7257 18 36.9602 18 45.9952C18 55.0458 18.0078 55.2647 18.1563 55.507C18.4768 56.0384 16.9683 55.9994 35.9918 55.9994C52.2329 55.9994 53.2255 55.9915 53.4756 55.8587C53.6241 55.7883 53.8117 55.6008 53.8899 55.4523C54.0227 55.1943 54.0305 54.7567 54.0305 46.0108C54.0305 35.9833 54.054 36.4913 53.5929 36.1865C53.4522 36.0927 42.1428 32.0598 37.3283 30.3872L36.9922 30.2699V29.0663C36.9922 27.9878 37.0079 27.8549 37.1329 27.8158C37.7347 27.6204 38.4147 27.1984 38.8524 26.7372C40.2358 25.2913 40.3765 23.1576 39.1963 21.5867C38.743 20.9927 38.2037 20.5784 37.5237 20.2971L36.9922 20.086V19.0466V18.0149L41.0408 18.0071C43.9561 18.0071 45.1597 17.9836 45.3551 17.9133C45.7224 17.7882 45.9803 17.3818 45.9803 16.9441C45.9803 16.6706 45.9334 16.5533 45.7146 16.311L45.4489 16.0219L36.1169 16.0062C27.926 15.9906 26.7614 15.9984 26.5504 16.1ZM41.5801 34.0137L47.0667 35.952L41.5644 35.9754C38.5398 35.9833 33.5689 35.9833 30.513 35.9754L24.9638 35.952L30.4114 34.0215C33.4048 32.9586 35.9137 32.091 35.9762 32.091C36.0387 32.0832 38.5632 32.9507 41.5801 34.0137ZM51.9985 45.9952V53.9673H36.0153H20.0321V45.9952V38.0232H36.0153H51.9985V45.9952Z" fill="black"/>
<path d="M23.4945 41.1496C22.9865 41.4544 23.0021 41.3294 23.0021 46.011C23.0021 50.083 23.0099 50.2628 23.1584 50.505C23.5414 51.1459 24.4559 51.1459 24.8388 50.505C24.9873 50.2628 24.9951 50.083 24.9951 45.9954C24.9951 41.9077 24.9873 41.728 24.8388 41.4857C24.5575 41.0167 23.9556 40.8682 23.4945 41.1496Z" fill="black"/>
<path d="M27.543 41.1264C27.3945 41.2046 27.207 41.3921 27.1288 41.5406C26.9959 41.7986 26.9881 42.0565 27.0038 46.0738L27.0272 50.3334L27.207 50.5835C27.5821 51.1071 28.4262 51.1071 28.8014 50.5835L28.9811 50.3334L29.0046 46.0894C29.0202 42.2519 29.0124 41.822 28.8952 41.5719C28.6529 41.0639 28.0433 40.8607 27.543 41.1264Z" fill="black"/>
<path d="M31.5525 41.1183C31.4274 41.1809 31.2477 41.345 31.1617 41.4857C31.021 41.728 31.0132 41.9077 31.0132 45.9954C31.0132 50.083 31.021 50.2628 31.1695 50.505C31.5525 51.1459 32.4669 51.1459 32.8499 50.505C32.9984 50.2628 33.0062 50.083 33.0062 45.9954C33.0062 41.9077 32.9984 41.728 32.8499 41.4857C32.5763 41.0324 32.037 40.8761 31.5525 41.1183Z" fill="black"/>
<path d="M35.5386 41.1417C35.0149 41.4621 35.0384 41.2042 35.0384 46.0031C35.0384 50.2939 35.0384 50.3564 35.2025 50.5597C35.6636 51.1458 36.4608 51.1224 36.836 50.5049C36.9845 50.2627 36.9923 50.0829 36.9923 45.9953C36.9923 41.9076 36.9845 41.7279 36.836 41.4856C36.5546 41.0166 35.9919 40.8681 35.5386 41.1417Z" fill="black"/>
<path d="M39.5167 41.1423C39.0087 41.4627 39.0243 41.3299 39.0243 46.0115C39.0243 50.0835 39.0322 50.2632 39.1807 50.5055C39.5324 51.0839 40.267 51.1542 40.7204 50.654L40.9783 50.3727V45.9959V41.619L40.7204 41.3377C40.3921 40.9781 39.9075 40.9 39.5167 41.1423Z" fill="black"/>
<path d="M43.5028 41.1496C42.9948 41.4544 43.0104 41.3294 43.0104 46.011C43.0104 50.083 43.0182 50.2628 43.1667 50.505C43.5497 51.1459 44.4642 51.1459 44.8471 50.505C44.9956 50.2628 45.0034 50.083 45.0034 45.9954C45.0034 41.9077 44.9956 41.728 44.8471 41.4857C44.5658 41.0167 43.9639 40.8682 43.5028 41.1496Z" fill="black"/>
<path d="M47.5513 41.1264C47.4028 41.2046 47.2153 41.3921 47.1371 41.5406C47.0042 41.7986 46.9964 42.0565 47.0121 46.0738L47.0355 50.3334L47.2153 50.5835C47.5904 51.1071 48.4345 51.1071 48.8097 50.5835L48.9894 50.3334L49.0129 46.0894C49.0285 42.2519 49.0207 41.822 48.9035 41.5719C48.6612 41.0639 48.0516 40.8607 47.5513 41.1264Z" fill="black"/>
</svg>
