<svg width="72" height="72" viewBox="0 0 72 72" fill="none" xmlns="http://www.w3.org/2000/svg">
<rect width="72" height="72" rx="36" fill="#FECA57"/>
<path d="M33.5453 21.1959C33.417 21.3266 32.7399 22.5966 31.7634 24.5633L30.1882 27.7274V32.4881V37.2488L29.7819 37.2924C28.9979 37.3795 27.9287 37.5536 27.3942 37.6843L26.8525 37.8149L26.6885 37.4593C26.4961 37.0456 25.9686 36.5159 25.5838 36.3489C25.2559 36.2111 19.0763 34.9338 18.727 34.9338C18.5488 34.9338 18.4205 34.9991 18.2423 35.1805L18 35.4273V41.7773C18 46.1098 18.0214 48.1927 18.0784 48.3451C18.1212 48.4684 18.2423 48.6281 18.3421 48.7007C18.5203 48.824 18.7413 48.8313 21.2787 48.8313C23.9373 48.8313 24.0299 48.824 24.3578 48.6716C24.7641 48.4829 25.2701 48.0185 25.4555 47.6701C25.5267 47.5323 25.6123 47.4161 25.6336 47.4161C25.6622 47.4161 26.1397 47.6339 26.7028 47.8951C30.6087 49.7239 34.2366 51.11 36.5745 51.6688C37.3015 51.843 37.5795 51.872 38.4918 51.872C39.4255 51.8793 39.6607 51.8503 40.345 51.6761C42.4262 51.1463 44.9922 50.1013 48.8625 48.2144C49.8247 47.7427 51.3928 46.9807 52.355 46.509C53.3172 46.0445 54.1796 45.5801 54.2794 45.4857L54.4576 45.3116V36.4723V27.6403L52.8682 24.4834C51.9915 22.749 51.1932 21.254 51.1005 21.1597L50.9223 21H42.3407H33.752L33.5453 21.1959ZM38.5132 24.8463L37.943 27.1686H35.0563H32.1696L33.3386 24.8463L34.5004 22.524H36.7883H39.0834L38.5132 24.8463ZM44.0798 22.7925C44.1226 22.9449 44.365 23.9319 44.6215 24.9914C44.8781 26.051 45.1062 26.9727 45.1276 27.038C45.1632 27.1613 44.9993 27.1686 42.3478 27.1686C40.794 27.1686 39.5253 27.1541 39.5253 27.1323C39.5253 27.0815 40.5873 22.7345 40.6301 22.6111C40.6515 22.5458 41.0577 22.524 42.3336 22.524H44.0086L44.0798 22.7925ZM51.3286 24.8463L52.4761 27.1323L49.6251 27.1541C48.057 27.1613 46.7598 27.1541 46.7384 27.1396C46.7171 27.1105 45.598 22.6546 45.5838 22.5385C45.5838 22.5313 46.6173 22.5313 47.8789 22.5385L50.1739 22.5603L51.3286 24.8463ZM37.7434 30.594C37.7434 31.6826 37.7791 32.6187 37.8147 32.7711C37.8575 32.9163 37.9715 33.105 38.0784 33.1921C38.2566 33.3372 38.3421 33.3372 42.3478 33.3372H46.4248L46.6458 33.1122L46.8667 32.8945L46.881 30.8117L46.9024 28.7289H49.9316H52.9608L52.9822 35.6377C52.9893 40.413 52.9751 42.5538 52.9252 42.5538C52.8824 42.5538 52.7256 42.4885 52.5759 42.4087C51.6565 41.937 49.9957 41.7773 48.5132 42.0386C47.3728 42.2345 46.2538 42.4958 44.9779 42.8514C44.4148 43.0038 43.923 43.1344 43.8874 43.1344C43.8518 43.1344 43.7805 42.982 43.7377 42.7933C43.6237 42.3361 43.4883 42.0894 43.139 41.6975C42.3764 40.8556 41.0435 40.2823 38.4562 39.6872C36.9808 39.3534 36.2751 39.1067 34.9352 38.4753C33.3885 37.7423 32.6828 37.4738 31.9915 37.3649L31.685 37.3141V33.0034V28.6926H34.7142H37.7434V30.594ZM45.3699 30.2529V31.8132H42.3407H39.3115V30.2529V28.6926H42.3407H45.3699V30.2529ZM22.3763 37.2125C25.1846 37.7859 25.2773 37.8221 25.3771 38.2721C25.4412 38.5696 24.2865 46.6759 24.1511 46.9154C24.087 47.0243 23.9587 47.1476 23.866 47.1912C23.752 47.242 22.9537 47.271 21.5994 47.271H19.4968V41.9733C19.4968 36.8715 19.5039 36.6755 19.6251 36.6755C19.7035 36.6755 20.9366 36.915 22.3763 37.2125ZM31.9344 38.918C32.5332 39.0631 32.9893 39.2518 34.6429 40.0356C35.819 40.5871 36.6244 40.8629 38.0285 41.175C40.9793 41.8426 42.3051 42.5248 42.3051 43.3884C42.3051 43.7005 42.1839 43.8383 41.7776 43.998C40.5873 44.448 37.665 44.0996 34.1084 43.0909C32.5332 42.6409 32.4049 42.6191 32.134 42.7498C31.8845 42.8659 31.685 43.1634 31.685 43.4247C31.685 43.6351 31.8703 43.9835 32.0271 44.0706C32.2267 44.1794 34.5788 44.8326 35.7121 45.0938C39.3471 45.9357 41.5923 45.9574 42.8824 45.1664C43.3386 44.8834 45.933 44.1432 48.1141 43.6714C50.1098 43.2433 51.9202 43.49 52.6686 44.2883C52.7826 44.4117 52.8682 44.5205 52.8468 44.535C52.7969 44.5786 47.4868 47.1839 46.8311 47.4887C42.5403 49.5062 39.7035 50.4642 38.2851 50.3698C36.3179 50.2392 32.0128 48.6934 26.8738 46.2695C26.0542 45.8776 25.9473 45.8123 25.9615 45.6599C25.9829 45.3914 26.7669 39.7743 26.8026 39.6002C26.8382 39.4332 27.0948 39.3389 28.1212 39.1067C29.6536 38.7728 31.0435 38.7003 31.9344 38.918Z" fill="black" stroke="black" stroke-width="0.5"/>
</svg>
