<svg width="72" height="72" viewBox="0 0 72 72" fill="none" xmlns="http://www.w3.org/2000/svg">
<rect width="72" height="72" rx="36" fill="#FECA57"/>
<path d="M24.9518 19.4832C23.845 19.8608 22.9726 20.8243 22.7448 21.9246C22.6406 22.4194 22.6406 49.5938 22.7448 50.0756C22.9856 51.1954 23.9036 52.198 25.0039 52.5365C25.414 52.6667 25.6289 52.6667 36.2148 52.6667C46.8007 52.6667 47.0156 52.6667 47.4257 52.5365C48.2395 52.2891 49.0143 51.6316 49.3919 50.8829C49.776 50.1147 49.7565 50.7071 49.7565 39.5092C49.7565 32.5235 49.7369 29.1772 49.6914 29.0535C49.6132 28.8451 40.3815 19.5743 40.108 19.4246C39.9583 19.3464 38.858 19.3334 32.6536 19.3334L25.375 19.3399L24.9518 19.4832ZM38.5716 25.6615C38.5911 29.7957 38.5976 29.9194 38.7213 30.0886C38.7929 30.1863 38.9557 30.323 39.0859 30.3946C39.3203 30.5313 39.3984 30.5313 43.4674 30.5313H47.608V40.0691C47.608 49.4701 47.608 49.6134 47.4778 49.8673C47.3151 50.1928 47.0026 50.4272 46.6315 50.5118C46.2278 50.6029 26.2018 50.6029 25.7981 50.5118C25.427 50.4272 25.1145 50.1928 24.9518 49.8673C24.8216 49.6134 24.8216 49.4636 24.8216 36.0001C24.8216 22.5365 24.8216 22.3868 24.9518 22.1329C25.108 21.8204 25.4336 21.5665 25.7721 21.4884C25.9153 21.4558 28.7213 21.4298 32.289 21.4233L38.5586 21.4167L38.5716 25.6615ZM43.4088 25.7136L46.0781 28.3829H43.3893H40.707V25.7136C40.707 24.2423 40.7135 23.0444 40.7265 23.0444C40.733 23.0444 41.944 24.2423 43.4088 25.7136Z" fill="black"/>
<path d="M29.5026 35.603C29.0078 35.7593 28.6888 36.2476 28.7474 36.7619C28.7799 37.0939 28.9362 37.3348 29.2487 37.5431L29.4635 37.6929H36.2148H42.9661L43.181 37.5431C43.4935 37.3348 43.6497 37.0939 43.6823 36.7619C43.7279 36.3647 43.5195 35.9285 43.194 35.7267L42.9531 35.577L36.3125 35.564C32.6602 35.5575 29.5937 35.577 29.5026 35.603Z" fill="black"/>
<path d="M29.3398 42.7712C29.125 42.8558 28.8059 43.2725 28.7539 43.5199C28.6627 44.0081 28.9362 44.542 29.3593 44.7178C29.4961 44.7699 31.3645 44.7894 36.332 44.7764L43.1224 44.7568L43.3763 44.4899C43.8059 44.0277 43.8059 43.4678 43.3763 43.0055L43.1224 42.7386L36.2994 42.7256C32.5494 42.7191 29.4179 42.7386 29.3398 42.7712Z" fill="black"/>
</svg>
