<svg width="871" height="410" viewBox="0 0 871 410" fill="none" xmlns="http://www.w3.org/2000/svg">
<path fill-rule="evenodd" clip-rule="evenodd" d="M446.291 136.522C495.552 79.5421 564.319 0 666.797 0C763.072 0 873.611 78.3091 870.045 206.451C866.677 327.474 773.77 409.343 666.797 409.343C574.254 409.343 500.392 332.088 445.21 274.372C436.606 265.372 428.456 256.848 420.76 249.165C410.316 238.74 399.037 226.646 387.096 213.843C333.803 156.698 267.336 85.4281 203.248 85.4281C124.802 85.4281 89.144 152.347 89.144 206.451C89.144 274.082 146.196 327.474 203.248 327.474C271.136 327.474 306.812 287.839 322.791 263.403L379.843 327.474C367.957 346.458 294.532 409.343 203.248 409.343C89.144 409.343 0 302.558 0 206.451C0 110.345 67.7494 0 203.248 0C311.647 0 401.742 102.039 435.023 149.499C438.663 145.346 442.417 141.004 446.291 136.522ZM515.229 190.849C554.652 143.107 601.921 85.8632 673.928 88.9885C755.941 92.548 784.467 153.06 784.467 210.012C784.467 266.964 748.809 331.035 673.928 331.035C614.024 331.035 532.487 250.353 499.206 210.012C504.426 203.932 509.752 197.483 515.229 190.849Z" fill="#F1F1F1"/>
</svg>
