<svg width="81" height="80" viewBox="0 0 81 80" fill="none" xmlns="http://www.w3.org/2000/svg">
<path d="M43.5003 18.7657L51.6341 26.8996C51.6341 25.0921 52.086 23.2845 52.086 23.2845C52.086 23.2845 62.7052 21.9289 70.6132 37.7448C72.6741 41.8666 69.7094 25.0921 61.5755 17.4101C59.8927 15.8207 54.6467 14.5481 52.086 14.2469V10.6318L43.5003 18.7657Z" fill="#FECA57"/>
<path d="M37.3547 61.433L29.2208 53.2991C29.2208 55.1067 28.7689 56.9142 28.7689 56.9142C28.7689 56.9142 18.1497 58.2698 10.2418 42.454C8.18086 38.3322 11.1455 55.1067 19.2794 62.7887C20.9623 64.378 26.2083 65.6506 28.7689 65.9518V69.5669L37.3547 61.433Z" fill="#FECA57"/>
<path d="M36.3063 8.56101C31.3677 9.23626 26.9587 10.8913 22.8542 13.6188C15.5456 18.4647 10.607 26.0381 9.04464 34.7766C8.59448 37.279 8.59448 41.5424 9.0314 44.111C10.4084 52.0684 12.9505 57.7881 16.8564 61.7337C18.5644 63.455 20.0605 64.5142 21.9009 65.3086C23.2514 65.8912 25.3698 66.4473 26.7336 66.5664L27.7266 66.6591V68.4862C27.7266 70.1545 27.7531 70.3531 27.9914 70.5914C28.1768 70.7768 28.4283 70.8562 28.8123 70.8562C29.3816 70.8562 29.3816 70.8562 33.8436 66.3811L38.3188 61.9191V61.3233V60.7275L33.8436 56.2655C29.3816 51.7903 29.3816 51.7903 28.8123 51.7903C28.4283 51.7903 28.1768 51.8698 27.9914 52.0551C27.7531 52.2935 27.7266 52.4921 27.7266 54.1206V55.9345L26.9719 55.8418C20.9211 55.1269 15.4 50.175 11.7854 42.2176L11.322 41.1982H18.4452H25.5684L25.6479 43.4093C25.7273 45.7263 26.0583 49.1158 26.2834 49.9632C26.4291 50.5193 26.7203 50.7311 27.3294 50.7311C28.3489 50.7311 28.574 50.228 28.3224 48.3876C28.0576 46.5075 27.859 43.8859 27.859 42.4427V41.1982H40.4372H53.0154V42.4163C53.0154 45.4747 52.2078 51.5255 51.4266 54.4649L51.2809 54.968H45.0713C39.0205 54.968 38.8351 54.9812 38.5836 55.2328C38.4115 55.4049 38.3188 55.6697 38.3188 56.0272C38.3188 56.3847 38.4115 56.6495 38.5836 56.8216C38.8351 57.0732 39.0205 57.0864 44.7403 57.0864C48.5137 57.0864 50.6322 57.1394 50.6322 57.2188C50.6322 57.7352 49.1493 61.4425 48.3151 63.018C45.8127 67.7183 42.794 70.0354 39.709 69.6381C38.7689 69.519 37.286 68.8305 36.4916 68.1685C36.0679 67.811 35.7899 67.6786 35.4589 67.6786C34.8234 67.6786 34.3467 68.1685 34.3467 68.8173C34.3467 69.2145 34.4394 69.3866 34.8896 69.797C35.6442 70.4855 36.8888 71.2005 37.9216 71.5447C38.5836 71.7698 39.2059 71.836 40.6755 71.889C44.5682 71.9949 48.7785 71.1608 52.8433 69.4528C58.285 67.1755 63.2369 63.1504 66.5866 58.278C67.0236 57.6557 67.5002 57.0202 67.6723 56.8613C67.8445 56.7025 67.9769 56.4774 67.9769 56.3582C67.9769 56.2523 68.2417 55.6697 68.5727 55.0607C71.512 49.6189 72.7831 42.8929 71.9489 37.0937C70.797 28.9509 68.096 22.6486 64.018 18.5441C61.1714 15.671 58.2585 14.2278 54.4454 13.7512L53.1478 13.6055V11.7784C53.1478 10.1234 53.1213 9.92475 52.883 9.68643C52.6977 9.50106 52.4461 9.42162 52.0621 9.42162C51.4928 9.42162 51.4928 9.42162 47.0308 13.8968L42.5556 18.3588V18.9546V19.5504L47.0308 24.0123C51.4928 28.4875 51.4928 28.4875 52.0621 28.4875C52.4461 28.4875 52.6977 28.4081 52.883 28.2227C53.1213 27.9844 53.1478 27.7858 53.1478 26.1573V24.3433L53.9158 24.436C55.4913 24.6214 57.7157 25.3496 59.1854 26.1705C63.0912 28.3551 66.5999 32.5655 69.089 38.047L69.5525 39.0797H62.416H55.2663V37.7689C55.2663 36.2728 55.0809 33.7571 54.8028 31.6122C54.5778 29.9307 54.3527 29.5468 53.5583 29.5468C52.6447 29.56 52.3004 30.1426 52.4858 31.3607C52.7109 32.8038 53.0154 36.4846 53.0154 37.7822V39.0797H40.4372H27.859V37.8484C27.859 34.8031 28.6534 28.7656 29.4478 25.866L29.5935 25.3099H36.0679H42.5556V24.2507V23.1915H36.3989C32.4534 23.1915 30.2422 23.1385 30.2422 23.059C30.2422 22.7942 31.1558 20.2918 31.7649 18.9281C33.6715 14.5721 36.346 11.5533 38.9675 10.7854C40.1459 10.4411 41.6288 10.5868 42.8337 11.1693C43.3765 11.4209 44.1312 11.9108 44.5284 12.2418C45.111 12.7317 45.3493 12.8641 45.7333 12.8641C46.3821 12.8641 46.7925 12.4272 46.7925 11.7387C46.7925 11.2753 46.6998 11.1428 46.0378 10.5073C45.1772 9.71291 43.5884 8.87877 42.357 8.56101C41.3773 8.30944 38.1467 8.30944 36.3063 8.56101ZM33.1551 12.2285C31.1823 14.5721 29.6464 17.4717 28.3224 21.3775L27.7266 23.1252L21.9539 23.165L16.1944 23.1915L17.0285 22.1058C20.2194 17.9483 24.6946 14.5985 29.6994 12.5993C30.8248 12.1491 33.4728 11.315 33.8568 11.2885C33.9098 11.2752 33.592 11.6989 33.1551 12.2285ZM51.0956 15.2076C51.2015 15.6578 51.5722 15.7769 53.2537 15.9226C56.9478 16.2139 59.8871 17.5776 62.4822 20.2124C65.2494 23.0061 67.0765 26.528 68.7183 32.261C68.7713 32.4066 68.427 31.983 67.9769 31.3342C65.2494 27.4283 61.9128 24.6214 58.3909 23.2577C56.577 22.5692 55.1339 22.2646 53.267 22.172C51.6782 22.1058 51.5855 22.1058 51.3074 22.3838C51.0691 22.6221 51.0294 22.8207 51.0294 23.6813V24.7141L48.1563 21.8409L45.2699 18.9546L48.1165 16.1079L50.9632 13.2613L51.0029 14.0822C51.0161 14.5456 51.0559 15.0487 51.0956 15.2076ZM27.144 25.5085C27.0249 25.8263 26.4291 28.9774 26.204 30.5C25.9127 32.5523 25.6082 36.1404 25.6082 37.716V39.0797H18.2466H10.8718L10.9645 37.8219C11.1498 35.2003 11.8781 31.9962 12.8446 29.5203C13.3345 28.3022 14.5261 25.7865 14.7777 25.4688C14.8836 25.3496 16.3003 25.3099 21.0668 25.3099C26.4423 25.3099 27.2102 25.3364 27.144 25.5085ZM69.9099 42.4163C69.6584 46.1235 68.4403 50.3471 66.6793 53.7102L66.057 54.9018L59.8606 54.9415C53.9952 54.968 53.6642 54.9547 53.7304 54.7429C54.3394 52.7701 55.0941 47.0106 55.2265 43.4093L55.306 41.1982H62.6543H70.0026L69.9099 42.4163ZM14.7379 51.3137C18.4055 55.6168 23.3706 58.1456 28.137 58.1456C29.7126 58.1456 29.845 58.0132 29.845 56.5965V55.5638L32.7182 58.4502L35.6045 61.3233L32.7182 64.1964L29.845 67.0828V66.05C29.845 64.5274 29.8583 64.5407 26.9719 64.3023C26.4555 64.2626 25.5022 64.0773 24.8535 63.9051C19.9281 62.5811 16.1414 58.7017 13.5993 52.3861C13.1094 51.1548 12.8313 50.3207 12.1561 48.0169C12.1031 47.8712 12.4474 48.2817 12.8975 48.9437C13.361 49.5925 14.1818 50.6649 14.7379 51.3137ZM64.5344 57.1923C64.5344 57.3777 62.7999 59.4961 61.701 60.6348C58.1394 64.3553 53.3597 67.2152 48.4211 68.6054C47.6531 68.8305 46.9911 69.0026 46.9646 69.0026C46.9382 69.0026 47.2824 68.5789 47.7193 68.0493C49.7186 65.6793 51.5458 62.1574 52.6844 58.5164C52.8698 57.9073 53.0551 57.338 53.0816 57.2453C53.1213 57.1261 54.3924 57.0864 58.8411 57.0864C61.9658 57.0864 64.5344 57.1261 64.5344 57.1923Z" fill="black"/>
</svg>
